<?xml version="1.0" encoding="utf-8"?>
<!-- Generator: Adobe Illustrator 16.0.0, SVG Export Plug-In . SVG Version: 6.00 Build 0)  -->
<!DOCTYPE svg PUBLIC "-//W3C//DTD SVG 1.1//EN" "http://www.w3.org/Graphics/SVG/1.1/DTD/svg11.dtd">
<svg version="1.1" id="Capa_1" xmlns="http://www.w3.org/2000/svg" xmlns:xlink="http://www.w3.org/1999/xlink" x="0px" y="0px"
	 width="596.28px" height="595.526px" viewBox="0 0 596.28 595.526" enable-background="new 0 0 596.28 595.526"
	 xml:space="preserve">
<path fill="none" stroke="#3997D3" stroke-width="10" stroke-miterlimit="10" d="M362.639,517.421"/>
<path fill="#FFFFFF" stroke="#000000" stroke-width="10" stroke-miterlimit="10" d="M401.522,490.836"/>
<path fill="none" stroke="#0A0909" stroke-width="10" stroke-miterlimit="10" d="M404.181,478.196"/>
<g>
	<g>
		<circle fill="#FFFFFF" cx="298.64" cy="302" r="293.526"/>
	</g>
	<g>
		<path fill="none" stroke="#3997D3" stroke-width="10" stroke-miterlimit="10" d="M278.824,219.236c0,0,9.441,15.323-1.75,28.006
			c-11.19,12.682-0.797,24.199-0.797,24.199c5.886,10.809,52.311,50.649,52.311,50.649s11.153,10.947,23.091-1.736
			c0,0,13.627-14.503,26.36-0.498l20.712,24.795c0,0,7.83,8.644-0.128,19.401l-17.157,17.905c0,0-13.801,20.14-45.548,9.011
			c0,0-77.042-42.705-136.886-138.202c0,0-10.821-16.439,3.375-36.589c14.197-20.15,49.001-26.561,49.001-26.561L278.824,219.236z"
			/>
		<path fill="none" stroke="#3997D3" stroke-width="10" stroke-miterlimit="10" d="M390.625,372.4
			c23.938,76.305-50.027,101.725-91.985,101.725c-91.814,0-166.244-74.43-166.244-166.244c0-91.814,74.429-166.244,166.244-166.244
			c91.813,0,166.244,74.429,166.244,166.244c0,19.33-3.299,37.889-9.365,55.147"/>
	</g>
</g>
</svg>
