<?xml version="1.0" encoding="utf-8"?>
<!-- Generator: Adobe Illustrator 16.0.0, SVG Export Plug-In . SVG Version: 6.00 Build 0)  -->
<!DOCTYPE svg PUBLIC "-//W3C//DTD SVG 1.1//EN" "http://www.w3.org/Graphics/SVG/1.1/DTD/svg11.dtd">
<svg version="1.1" id="Capa_1" xmlns="http://www.w3.org/2000/svg" xmlns:xlink="http://www.w3.org/1999/xlink" x="0px" y="0px"
	 width="596.28px" height="595.526px" viewBox="0 0 596.28 595.526" enable-background="new 0 0 596.28 595.526"
	 xml:space="preserve">
<path fill="none" stroke="#3997D3" stroke-width="10" stroke-miterlimit="10" d="M362.639,517.421"/>
<path fill="#FFFFFF" stroke="#000000" stroke-width="10" stroke-miterlimit="10" d="M401.522,490.836"/>
<path fill="none" stroke="#0A0909" stroke-width="10" stroke-miterlimit="10" d="M404.181,478.196"/>
<g>
	<path fill="none" stroke="#3997D3" stroke-width="10" stroke-miterlimit="10" d="M271.672,187.243c0,0,12.849,20.854-2.381,38.113
		c-15.229,17.259-1.084,32.933-1.084,32.933c8.01,14.71,71.19,68.93,71.19,68.93s15.179,14.897,31.425-2.362
		c0,0,18.545-19.738,35.874-0.677l28.188,33.744c0,0,10.656,11.763-0.174,26.403l-23.35,24.367c0,0-18.782,27.409-61.987,12.264
		c0,0-104.848-58.118-186.291-188.082c0,0-14.727-22.373,4.593-49.794c19.32-27.423,66.686-36.147,66.686-36.147L271.672,187.243z"
		/>
	<path fill="none" stroke="#3997D3" stroke-width="10" stroke-miterlimit="10" d="M423.824,395.687
		c32.578,103.844-68.083,138.438-125.185,138.438c-124.952,0-226.244-101.293-226.244-226.244
		c0-124.952,101.292-226.244,226.244-226.244c124.95,0,226.244,101.292,226.244,226.244c0,26.307-4.489,51.563-12.745,75.05"/>
</g>
</svg>
