<?xml version="1.0" encoding="utf-8"?>
<!-- Generator: Adobe Illustrator 16.0.0, SVG Export Plug-In . SVG Version: 6.00 Build 0)  -->
<!DOCTYPE svg PUBLIC "-//W3C//DTD SVG 1.1//EN" "http://www.w3.org/Graphics/SVG/1.1/DTD/svg11.dtd">
<svg version="1.1" id="Capa_1" xmlns="http://www.w3.org/2000/svg" xmlns:xlink="http://www.w3.org/1999/xlink" x="0px" y="0px"
	 width="1920px" height="1080px" viewBox="0 0 1920 1080" enable-background="new 0 0 1920 1080" xml:space="preserve">
<g>
	<g>
		<path fill="#E63535" d="M1404.939,918.112H515.061c-47.142,0-85.526-38.351-85.526-85.525V249.404
			c0-47.175,38.384-85.526,85.526-85.526h889.878c47.143,0,85.525,38.351,85.525,85.526v583.183
			C1490.465,879.762,1452.082,918.112,1404.939,918.112z M515.061,198.088c-28.292,0-51.315,23.024-51.315,51.315v583.183
			c0,28.291,23.023,51.315,51.315,51.315h889.878c28.291,0,51.314-23.024,51.314-51.315V249.404
			c0-28.292-23.023-51.315-51.314-51.315H515.061z"/>
		<path fill="#E63535" d="M960,626.948c-22.75,0-45.5-7.561-62.811-22.646L460.016,223.302c-7.115-6.227-7.868-17.004-1.641-24.119
			c6.226-7.184,17.037-7.868,24.152-1.675l437.139,380.998c21.894,19.056,58.841,19.021,80.667,0l437.037-380.964
			c7.082-6.261,17.857-5.542,24.152,1.675c6.225,7.115,5.472,17.893-1.643,24.119l-437.069,380.931
			C1005.5,619.388,982.749,626.948,960,626.948z"/>
	</g>
	<g>
	</g>
	<g>
	</g>
	<g>
	</g>
	<g>
	</g>
	<g>
	</g>
	<g>
	</g>
	<g>
	</g>
	<g>
	</g>
	<g>
	</g>
	<g>
	</g>
	<g>
	</g>
	<g>
	</g>
	<g>
	</g>
	<g>
	</g>
	<g>
	</g>
</g>
</svg>
