<?xml version="1.0" encoding="utf-8"?>
<!-- Generator: Adobe Illustrator 16.0.0, SVG Export Plug-In . SVG Version: 6.00 Build 0)  -->
<!DOCTYPE svg PUBLIC "-//W3C//DTD SVG 1.1//EN" "http://www.w3.org/Graphics/SVG/1.1/DTD/svg11.dtd">
<svg version="1.1" id="Capa_1" xmlns="http://www.w3.org/2000/svg" xmlns:xlink="http://www.w3.org/1999/xlink" x="0px" y="0px"
	 width="1920px" height="1080px" viewBox="0 0 1920 1080" enable-background="new 0 0 1920 1080" xml:space="preserve">
<g>
	<g>
		<path fill="#E63535" d="M1525.283,1020.112H394.717c-59.893,0-108.658-48.725-108.658-108.657V170.536
			c0-59.934,48.765-108.658,108.658-108.658h1130.566c59.894,0,108.657,48.724,108.657,108.658v740.919
			C1633.941,971.389,1585.177,1020.112,1525.283,1020.112z M394.717,105.341c-35.943,0-65.194,29.251-65.194,65.194v740.918
			c0,35.943,29.25,65.195,65.194,65.195h1130.566c35.943,0,65.193-29.252,65.193-65.195V170.536
			c0-35.944-29.25-65.194-65.193-65.194L394.717,105.341L394.717,105.341z"/>
		<path fill="#E63535" d="M960,650.196c-28.903,0-57.806-9.606-79.799-28.771L324.784,137.374
			c-9.039-7.91-9.995-21.603-2.084-30.642c7.911-9.127,21.645-9.997,30.685-2.129l555.373,484.048
			c27.816,24.211,74.756,24.166,102.485,0l555.244-484.004c8.997-7.954,22.686-7.041,30.684,2.127
			c7.909,9.04,6.953,22.733-2.087,30.643L1039.799,621.38C1017.807,640.591,988.902,650.196,960,650.196z"/>
	</g>
</g>
</svg>
