<?xml version="1.0" encoding="utf-8"?>
<!-- Generator: Adobe Illustrator 16.0.0, SVG Export Plug-In . SVG Version: 6.00 Build 0)  -->
<!DOCTYPE svg PUBLIC "-//W3C//DTD SVG 1.1//EN" "http://www.w3.org/Graphics/SVG/1.1/DTD/svg11.dtd">
<svg version="1.1" id="Capa_1" xmlns="http://www.w3.org/2000/svg" xmlns:xlink="http://www.w3.org/1999/xlink" x="0px" y="0px"
	 width="418.823px" height="567.061px" viewBox="0 0 418.823 567.061" enable-background="new 0 0 418.823 567.061"
	 xml:space="preserve">
<g>
	<g>
		<g>
			<path fill="#E63535" d="M869.33,808.733c-107.108,0.109-193.893,86.939-193.948,194.047
				c0,104.211,178.876,306.145,186.462,314.629c3.677,4.107,9.987,4.455,14.095,0.778c0.273-0.244,0.533-0.504,0.779-0.778
				c7.586-8.585,186.461-210.418,186.461-314.629C1063.122,895.71,976.397,808.897,869.33,808.733z M869.33,1295.548
				c-34.139-39.928-173.984-207.523-173.984-292.868c0-96.089,77.895-173.984,173.984-173.984
				c96.089,0,173.983,77.896,173.983,173.984C1043.313,1088.025,903.468,1255.821,869.33,1295.548z"/>
		</g>
	</g>
	<g>
		<g>
			<path fill="#E63535" d="M872.823,906.055c-58.05,0.056-105.063,47.16-105.009,105.209c0.055,58.05,47.158,105.064,105.208,105.01
				c58.012-0.055,105.01-47.099,105.01-105.109C977.923,953.122,930.866,906.111,872.823,906.055z M872.823,1096.41
				c-47.024,0-85.146-38.12-85.146-85.146c0-47.024,38.121-85.145,85.146-85.145c47.025,0,85.146,38.12,85.146,85.145
				C957.913,1058.267,919.824,1096.355,872.823,1096.41z"/>
		</g>
	</g>
	<g>
	</g>
	<g>
	</g>
	<g>
	</g>
	<g>
	</g>
	<g>
	</g>
	<g>
	</g>
	<g>
	</g>
	<g>
	</g>
	<g>
	</g>
	<g>
	</g>
	<g>
	</g>
	<g>
	</g>
	<g>
	</g>
	<g>
	</g>
	<g>
	</g>
</g>
<g>
	<g>
		<path fill="#E63535" d="M370.877,427.39H51.945c-16.895,0-30.652-13.744-30.652-30.652V187.726
			c0-16.908,13.757-30.653,30.652-30.653h318.932c16.896,0,30.652,13.745,30.652,30.653v209.012
			C401.529,413.646,387.772,427.39,370.877,427.39z M51.945,169.334c-10.14,0-18.392,8.252-18.392,18.392v209.012
			c0,10.14,8.252,18.392,18.392,18.392h318.932c10.14,0,18.392-8.252,18.392-18.392V187.726c0-10.14-8.252-18.392-18.392-18.392
			H51.945z"/>
		<path fill="#E63535" d="M211.411,323.038c-8.153,0-16.307-2.71-22.511-8.116L32.217,178.371c-2.55-2.232-2.82-6.094-0.588-8.645
			c2.232-2.574,6.106-2.819,8.656-0.6l156.67,136.549c7.847,6.83,21.088,6.817,28.911,0L382.5,169.139
			c2.538-2.244,6.4-1.986,8.656,0.601c2.231,2.55,1.962,6.413-0.588,8.644L233.922,314.909
			C227.718,320.328,219.565,323.038,211.411,323.038z"/>
	</g>
	<g>
	</g>
	<g>
	</g>
	<g>
	</g>
	<g>
	</g>
	<g>
	</g>
	<g>
	</g>
	<g>
	</g>
	<g>
	</g>
	<g>
	</g>
	<g>
	</g>
	<g>
	</g>
	<g>
	</g>
	<g>
	</g>
	<g>
	</g>
	<g>
	</g>
</g>
</svg>
